GIL01_free4_ik
nRows=3
nColumns=375

# SIMM Motion File Header:
name GIL01_free4_ik
datacolumns 375
datarows 3
otherdata 1
range 0.93333000 0.95000000
endheader
time	pelvis_tx	pelvis_ty	pelvis_tz	pelvis_tilt	pelvis_list	pelvis_rotation	hip_flexion_r	hip_adduction_r	hip_rotation_r	knee_angle_r	ankle_angle_r	hip_flexion_l	hip_adduction_l	hip_rotation_l	knee_angle_l	ankle_angle_l	lumbar_extension	lumbar_bending	lumbar_rotation	subtalar_angle_r	mtp_angle_r	subtalar_angle_l	mtp_angle_l	asis_r_px	asis_r_py	asis_r_pz	asis_l_px	asis_l_py	asis_l_pz	midasis_px	midasis_py	midasis_pz	psis_r_px	psis_r_py	psis_r_pz	psis_l_px	psis_l_py	psis_l_pz	hip_r_px	hip_r_py	hip_r_pz	hip_l_px	hip_l_py	hip_l_pz	midhip_px	midhip_py	midhip_pz	epicondLat_r_px	epicondLat_r_py	epicondLat_r_pz	epicondMed_r_px	epicondMed_r_py	epicondMed_r_pz	thighwand_r_px	thighwand_r_py	thighwand_r_pz	upperleg1_r_px	upperleg1_r_py	upperleg1_r_pz	upperleg2_r_px	upperleg2_r_py	upperleg2_r_pz	malleolusLat_r_px	malleolusLat_r_py	malleolusLat_r_pz	malleolusMedv_r_px	malleolusMedv_r_py	malleolusMedv_r_pz	shankwand_r_px	shankwand_r_py	shankwand_r_pz	lowerleg1_r_px	lowerleg1_r_py	lowerleg1_r_pz	knee_r_px	knee_r_py	knee_r_pz	ankle_r_px	ankle_r_py	ankle_r_pz	toe_r_px	toe_r_py	toe_r_pz	epicondLat_l_px	epicondLat_l_py	epicondLat_l_pz	epicondMed_l_px	epicondMed_l_py	epicondMed_l_pz	thighwand_l_px	thighwand_l_py	thighwand_l_pz	upperleg1_l_px	upperleg1_l_py	upperleg1_l_pz	upperleg2_l_px	upperleg2_l_py	upperleg2_l_pz	malleolusLat_l_px	malleolusLat_l_py	malleolusLat_l_pz	malleolusMedv_l_px	malleolusMedv_l_py	malleolusMedv_l_pz	shankwand_l_px	shankwand_l_py	shankwand_l_pz	lowerleg1_l_px	lowerleg1_l_py	lowerleg1_l_pz	knee_l_px	knee_l_py	knee_l_pz	ankle_l_px	ankle_l_py	ankle_l_pz	toe_l_px	toe_l_py	toe_l_pz	subclavicle_r_px	subclavicle_r_py	subclavicle_r_pz	subclavicle_l_px	subclavicle_l_py	subclavicle_l_pz	neck_px	neck_py	neck_pz	sternalnotch_px	sternalnotch_py	sternalnotch_pz	xyphoidprocess_px	xyphoidprocess_py	xyphoidprocess_pz	midhip_tx	midhip_ty	midhip_tz	hip_r_tx	hip_r_ty	hip_r_tz	hip_l_tx	hip_l_ty	hip_l_tz	knee_r_tx	knee_r_ty	knee_r_tz	knee_l_tx	knee_l_ty	knee_l_tz	ankle_r_tx	ankle_r_ty	ankle_r_tz	ankle_l_tx	ankle_l_ty	ankle_l_tz	midasis_tx	midasis_ty	midasis_tz	asis_r_tx	asis_r_ty	asis_r_tz	asis_l_tx	asis_l_ty	asis_l_tz	psis_r_tx	psis_r_ty	psis_r_tz	psis_l_tx	psis_l_ty	psis_l_tz	epicondLat_r_tx	epicondLat_r_ty	epicondLat_r_tz	epicondLat_l_tx	epicondLat_l_ty	epicondLat_l_tz	epicondMed_r_tx	epicondMed_r_ty	epicondMed_r_tz	epicondMed_l_tx	epicondMed_l_ty	epicondMed_l_tz	malleolusLat_r_tx	malleolusLat_r_ty	malleolusLat_r_tz	malleolusLat_l_tx	malleolusLat_l_ty	malleolusLat_l_tz	malleolusMedv_r_tx	malleolusMedv_r_ty	malleolusMedv_r_tz	malleolusMedv_l_tx	malleolusMedv_l_ty	malleolusMedv_l_tz	neck_tx	neck_ty	neck_tz	subclavicle_r_tx	subclavicle_r_ty	subclavicle_r_tz	subclavicle_l_tx	subclavicle_l_ty	subclavicle_l_tz	sternalnotch_tx	sternalnotch_ty	sternalnotch_tz	xyphoidprocess_tx	xyphoidprocess_ty	xyphoidprocess_tz	thighwand_r_tx	thighwand_r_ty	thighwand_r_tz	thighwand_l_tx	thighwand_l_ty	thighwand_l_tz	upperleg1_r_tx	upperleg1_r_ty	upperleg1_r_tz	upperleg1_l_tx	upperleg1_l_ty	upperleg1_l_tz	upperleg2_r_tx	upperleg2_r_ty	upperleg2_r_tz	upperleg2_l_tx	upperleg2_l_ty	upperleg2_l_tz	shankwand_r_tx	shankwand_r_ty	shankwand_r_tz	shankwand_l_tx	shankwand_l_ty	shankwand_l_tz	lowerleg1_r_tx	lowerleg1_r_ty	lowerleg1_r_tz	lowerleg1_l_tx	lowerleg1_l_ty	lowerleg1_l_tz	toe_r_tx	toe_r_ty	toe_r_tz	toe_l_tx	toe_l_ty	toe_l_tz	ground_force_vx	ground_force_vy	ground_force_vz	ground_force_px	ground_force_py	ground_force_pz	ground_force_vx	ground_force_vy	ground_force_vz	ground_force_px	ground_force_py	ground_force_pz	ground_torque_x	ground_torque_y	ground_torque_z	ground_torque_x	ground_torque_y	ground_torque_z	ground_marker_px	ground_marker_py	ground_marker_pz	ground_marker_px	ground_marker_py	ground_marker_pz	ground_marker_px	ground_marker_py	ground_marker_pz	ground_marker_px	ground_marker_py	ground_marker_pz	ground_marker_px	ground_marker_py	ground_marker_pz	ground_marker_px	ground_marker_py	ground_marker_pz	ground_marker_px	ground_marker_py	ground_marker_pz	ground_marker_px	ground_marker_py	ground_marker_pz	ground_marker_px	ground_marker_py	ground_marker_pz	ground_marker_px	ground_marker_py	ground_marker_pz	ground_marker_px	ground_marker_py	ground_marker_pz	ground_marker_px	ground_marker_py	ground_marker_pz	ground_marker_px	ground_marker_py	ground_marker_pz	ground_marker_px	ground_marker_py	ground_marker_pz	ground_marker_px	ground_marker_py	ground_marker_pz	ground_marker_px	ground_marker_py	ground_marker_pz	ground_marker_px	ground_marker_py	ground_marker_pz	ground_marker_px	ground_marker_py	ground_marker_pz	ground_marker_px	ground_marker_py	ground_marker_pz	ground_marker_px	ground_marker_py	ground_marker_pz	ground_marker_px	ground_marker_py	ground_marker_pz	ground_marker_px	ground_marker_py	ground_marker_pz	ground_marker_px	ground_marker_py	ground_marker_pz	ground_marker_px	ground_marker_py	ground_marker_pz	ground_marker_px	ground_marker_py	ground_marker_pz	ground_marker_px	ground_marker_py	ground_marker_pz	ground_marker_px	ground_marker_py	ground_marker_pz	ground_marker_px	ground_marker_py	ground_marker_pz	ground_marker_px	ground_marker_py	ground_marker_pz	ground_marker_px	ground_marker_py	ground_marker_pz	ground_marker_px	ground_marker_py	ground_marker_pz	ground_marker_px	ground_marker_py	ground_marker_pz	ground_marker_px	ground_marker_py	ground_marker_pz	ground_marker_px	ground_marker_py	ground_marker_pz	ground_marker_px	ground_marker_py	ground_marker_pz	ground_marker_px	ground_marker_py	ground_marker_pz	ground_marker_px	ground_marker_py	ground_marker_pz
      0.93333000	      0.80651115	      0.80265781	     -0.25021837	     -3.01468608	     -0.39954499	     -2.22157091	      6.38234867	      5.89015324	      3.80360974	    -11.95388472	      7.51522605	     23.20426973	     -5.01353827	     -2.41213502	    -56.04674465	     -1.84709082	     -0.30006161	     -3.00492829	     -2.04477254	      0.00000000	      0.00000000	      0.00000000	      0.00000000	      0.82215687	      0.80385629	     -0.14646043	      0.84765504	      0.79676125	     -0.35434539	      0.81794734	      0.80205862	     -0.24977413	      0.67842368	      0.85241743	     -0.23777181	      0.68127699	      0.85014015	     -0.29279731	      0.74329176	      0.75226497	     -0.18378387	      0.74853365	      0.75103500	     -0.32038508	      0.74591270	      0.75164998	     -0.25208448	      0.73038188	      0.39557723	     -0.15446117	      0.73262499	      0.40772471	     -0.26096222	      0.84008085	      0.51041516	     -0.09806517	      0.76790631	      0.57059033	     -0.12361221	      0.76295881	      0.48551306	     -0.14647575	      0.70364501	      0.05997642	     -0.19712510	      0.71498921	      0.06482691	     -0.25606092	      0.69164053	      0.16592879	     -0.11309866	      0.69541200	      0.13703761	     -0.19046150	      0.76190243	      0.41857697	     -0.21437952	      0.71098951	      0.07401714	     -0.24356794	      0.81087736	      0.02674050	     -0.20948125	      0.83130344	      0.42851937	     -0.39586077	      0.83201859	      0.36692523	     -0.26969663	      0.95771051	      0.58805074	     -0.35514969	      0.87308903	      0.62943067	     -0.37856766	      0.85963694	      0.49171293	     -0.34851648	      0.65042652	      0.15399856	     -0.39898330	      0.66378764	      0.13932863	     -0.34664185	      0.71983559	      0.26281727	     -0.46633218	      0.69219505	      0.22804440	     -0.39495507	      0.87024245	      0.43207467	     -0.34290005	      0.66618332	      0.14848747	     -0.35308535	      0.72252846	      0.06192029	     -0.40319382	      0.79041360	      1.16636831	     -0.22394672	      0.79682715	      1.17196101	     -0.29867827	      0.68772556	      1.21402369	     -0.28089318	      0.77971947	      1.16684665	     -0.26408078	      0.81603250	      1.08779595	     -0.26448406	      0.75476300	      0.74441800	     -0.25798500	      0.73922900	      0.74232200	     -0.19321400	      0.74436900	      0.74113100	     -0.32342300	      0.76072000	      0.40292000	     -0.22556300	      0.85879900	      0.43636200	     -0.34634500	      0.71168500	      0.06551800	     -0.23801700	      0.66380300	      0.15974300	     -0.34241800	      0.81325500	      0.80941500	     -0.25611700	      0.80929600	      0.81033300	     -0.15582400	      0.81721500	      0.80849800	     -0.35640900	      0.65544100	      0.85324500	     -0.22979100	      0.65384000	      0.85022800	     -0.28453500	      0.76252500	      0.39781700	     -0.17083000	      0.85717900	      0.43984200	     -0.40071000	      0.76082300	      0.41211400	     -0.27212600	      0.87558400	      0.40290300	     -0.30774600	      0.70716000	      0.06480100	     -0.20079800	      0.65690200	      0.16409600	     -0.37850700	      0.71243700	      0.06489400	     -0.26343500	      0.66987900	      0.15849800	     -0.31304600	      0.68828200	      1.21898900	     -0.28012400	      0.78863200	      1.16123200	     -0.22508900	      0.80056700	      1.16320200	     -0.30094300	      0.78029100	      1.16097700	     -0.26671200	      0.80830100	      1.07880400	     -0.26200400	      0.86001700	      0.51857500	     -0.10975000	      0.95932800	      0.60029500	     -0.34584000	      0.77863400	      0.57490100	     -0.13295900	      0.87183900	      0.62987800	     -0.38028700	      0.78342500	      0.49234000	     -0.15659300	      0.89512600	      0.54609500	     -0.38260000	      0.71598800	      0.16980800	     -0.12008600	      0.73660600	      0.25275800	     -0.45678400	      0.70935400	      0.13776400	     -0.19673500	      0.70666500	      0.22948700	     -0.38149600	      0.80646200	      0.03655600	     -0.21535700	      0.72359900	      0.07703400	     -0.36186100	     -9.45594750	    334.08694848	    -12.53565833	      0.76733722	      0.00000000	     -0.22838283	      0.00000000	      0.00000000	      0.00000000	      0.30159755	      0.00000000	     -0.35327460	      0.00000000	      1.10388477	      0.00000000	      0.00000000	      0.00000000	      0.00000000	      0.75476348	      0.74441826	     -0.25798488	      0.73922867	      0.74232185	     -0.19321415	      0.74436939	      0.74113053	     -0.32342276	      0.76071972	      0.40291950	     -0.22556284	      0.85879892	      0.43636167	     -0.34634510	      0.71168476	      0.06551759	     -0.23801726	      0.66380316	      0.15974306	     -0.34241802	      0.81325531	      0.80941534	     -0.25611654	      0.80929565	      0.81033289	     -0.15582423	      0.81721497	      0.80849779	     -0.35640883	      0.65544099	      0.85324466	     -0.22979079	      0.65384007	      0.85022765	     -0.28453526	      0.76252496	      0.39781713	     -0.17082979	      0.85717875	      0.43984222	     -0.40070972	      0.76082265	      0.41211432	     -0.27212581	      0.87558389	      0.40290308	     -0.30774599	      0.70716006	      0.06480131	     -0.20079812	      0.65690154	      0.16409585	     -0.37850711	      0.71243703	      0.06489413	     -0.26343501	      0.66987932	      0.15849803	     -0.31304625	      0.68828166	      1.21898854	     -0.28012362	      0.78863156	      1.16123152	     -0.22508910	      0.80056685	      1.16320205	     -0.30094296	      0.78029084	      1.16097689	     -0.26671222	      0.80830145	      1.07880449	     -0.26200405	      0.86001700	      0.51857460	     -0.10974954	      0.95932823	      0.60029495	     -0.34584010	      0.77863389	      0.57490063	     -0.13295925	      0.87183928	      0.62987757	     -0.38028687	      0.78342456	      0.49233973	     -0.15659297	      0.89512593	      0.54609466	     -0.38260019	      0.71598816	      0.16980751	     -0.12008649	      0.73660648	      0.25275755	     -0.45678359	      0.70935374	      0.13776371	     -0.19673452	      0.70666474	      0.22948711	     -0.38149557	      0.80646187	      0.03655637	     -0.21535672	      0.72359854	      0.07703415	     -0.36186111
      0.94167000	      0.81364913	      0.80259850	     -0.24879327	     -3.09228114	     -0.11757519	     -2.51387283	      5.75703850	      5.58998888	      3.77476661	    -11.66790728	      7.91622640	     24.03130076	     -4.56933289	     -1.42176187	    -54.26170354	     -1.08203657	     -0.32952575	     -3.48532542	     -1.40443744	      0.00000000	      0.00000000	      0.00000000	      0.00000000	      0.82874010	      0.80329462	     -0.14494861	      0.85534269	      0.79712976	     -0.35272481	      0.82508197	      0.80198189	     -0.24829060	      0.68556252	      0.85247192	     -0.23680153	      0.68870770	      0.85044608	     -0.29182095	      0.75000818	      0.75198301	     -0.18293300	      0.75598049	      0.75137970	     -0.31950843	      0.75299434	      0.75168135	     -0.25122072	      0.73246111	      0.39548873	     -0.15366605	      0.73551672	      0.40759152	     -0.26015197	      0.84323419	      0.50895550	     -0.09659822	      0.77197706	      0.57002391	     -0.12259699	      0.76610897	      0.48501171	     -0.14548485	      0.70352003	      0.05995087	     -0.19654422	      0.71529230	      0.06471693	     -0.25540292	      0.69175434	      0.16598904	     -0.11259225	      0.69582298	      0.13707172	     -0.18993027	      0.76458777	      0.41810318	     -0.21338612	      0.71127883	      0.07393678	     -0.24293620	      0.81084151	      0.02660562	     -0.20798479	      0.84433171	      0.43008467	     -0.39385433	      0.84273031	      0.36811952	     -0.26788013	      0.96783637	      0.59095802	     -0.34966432	      0.88332313	      0.63141709	     -0.37500343	      0.87077098	      0.49346075	     -0.34566582	      0.67551431	      0.14724965	     -0.40255026	      0.68813198	      0.13295147	     -0.34992222	      0.74191770	      0.25920968	     -0.46774645	      0.71395358	      0.22299659	     -0.39721659	      0.88168791	      0.43423915	     -0.33993895	      0.69029907	      0.14223051	     -0.35627402	      0.75265440	      0.05929111	     -0.40539001	      0.79869007	      1.16633799	     -0.22389268	      0.80465094	      1.17168732	     -0.29867951	      0.69578383	      1.21411746	     -0.28033909	      0.78774594	      1.16672638	     -0.26396026	      0.82382933	      1.08757053	     -0.26435161	      0.76177800	      0.74462300	     -0.25769600	      0.74610100	      0.74217200	     -0.19360100	      0.75210500	      0.74158900	     -0.32377700	      0.76351100	      0.40257300	     -0.22560500	      0.87063600	      0.43802300	     -0.34522200	      0.71194100	      0.06543900	     -0.23811400	      0.68765500	      0.15322600	     -0.34247200	      0.82064200	      0.80945200	     -0.25569300	      0.81601500	      0.80990200	     -0.15538000	      0.82526800	      0.80900300	     -0.35600600	      0.66242200	      0.85353900	     -0.22998900	      0.66120100	      0.85063900	     -0.28471700	      0.76484300	      0.39748200	     -0.17085700	      0.87036600	      0.44175900	     -0.39959400	      0.76598700	      0.41216800	     -0.27263600	      0.88649900	      0.40506000	     -0.30583300	      0.70739000	      0.06475400	     -0.20089800	      0.68077900	      0.15729500	     -0.37859900	      0.71274000	      0.06479500	     -0.26352600	      0.69396400	      0.15238600	     -0.31316000	      0.69658800	      1.21930000	     -0.27961200	      0.79688400	      1.16120700	     -0.22509000	      0.80820500	      1.16291400	     -0.30085500	      0.78820100	      1.16089000	     -0.26655300	      0.81579700	      1.07857700	     -0.26185200	      0.86337000	      0.51720700	     -0.10912300	      0.96892100	      0.60356500	     -0.34132400	      0.78284500	      0.57459600	     -0.13307100	      0.88181000	      0.63224200	     -0.37798900	      0.78747400	      0.49222700	     -0.15668300	      0.90622300	      0.54854700	     -0.37988300	      0.71697500	      0.16977400	     -0.12019700	      0.75715200	      0.24950700	     -0.45637800	      0.71020500	      0.13762000	     -0.19688700	      0.72794000	      0.22491200	     -0.38127600	      0.80653400	      0.03649300	     -0.21543300	      0.75192000	      0.07432300	     -0.36134400	     -8.77415910	    334.20480957	    -12.64926713	      0.77129718	      0.00000000	     -0.22838091	      0.00000000	      0.00000000	      0.00000000	      0.30343909	      0.00000000	     -0.35315500	      0.00000000	      1.08208032	      0.00000000	      0.00000000	      0.00000000	      0.00000000	      0.76177800	      0.74462330	     -0.25769600	      0.74610084	      0.74217242	     -0.19360137	      0.75210476	      0.74158913	     -0.32377720	      0.76351100	      0.40257257	     -0.22560500	      0.87063563	      0.43802309	     -0.34522238	      0.71194106	      0.06543881	     -0.23811419	      0.68765509	      0.15322623	     -0.34247166	      0.82064152	      0.80945218	     -0.25569260	      0.81601495	      0.80990171	     -0.15537956	      0.82526815	      0.80900270	     -0.35600564	      0.66242164	      0.85353905	     -0.22998855	      0.66120070	      0.85063934	     -0.28471655	      0.76484329	      0.39748150	     -0.17085734	      0.87036592	      0.44175878	     -0.39959353	      0.76598722	      0.41216812	     -0.27263597	      0.88649917	      0.40506011	     -0.30583286	      0.70739031	      0.06475402	     -0.20089765	      0.68077862	      0.15729538	     -0.37859860	      0.71273994	      0.06479522	     -0.26352620	      0.69396359	      0.15238640	     -0.31315997	      0.69658792	      1.21930003	     -0.27961239	      0.79688364	      1.16120672	     -0.22509003	      0.80820549	      1.16291380	     -0.30085459	      0.78820103	      1.16088963	     -0.26655295	      0.81579727	      1.07857668	     -0.26185152	      0.86337036	      0.51720679	     -0.10912342	      0.96892112	      0.60356539	     -0.34132397	      0.78284496	      0.57459581	     -0.13307071	      0.88180953	      0.63224226	     -0.37798947	      0.78747416	      0.49222723	     -0.15668297	      0.90622258	      0.54854667	     -0.37988323	      0.71697545	      0.16977420	     -0.12019654	      0.75715196	      0.24950655	     -0.45637825	      0.71020538	      0.13761987	     -0.19688655	      0.72793967	      0.22491208	     -0.38127622	      0.80653375	      0.03649281	     -0.21543300	      0.75192004	      0.07432276	     -0.36134371
      0.95000000	      0.82079083	      0.80240367	     -0.24754718	     -3.16333066	      0.11833330	     -2.77363211	      5.13257192	      5.32869533	      3.71800221	    -11.40393393	      8.34416331	     24.79413592	     -4.18006439	     -0.47520165	    -52.32337253	     -0.42053487	     -0.39690870	     -3.90795998	     -0.75029727	      0.00000000	      0.00000000	      0.00000000	      0.00000000	      0.83538881	      0.80268000	     -0.14363011	      0.86297124	      0.79728416	     -0.35129991	      0.83222039	      0.80177085	     -0.24699261	      0.69271015	      0.85239039	     -0.23597112	      0.69611436	      0.85057307	     -0.29098240	      0.75677526	      0.75161382	     -0.18218611	      0.76339602	      0.75153035	     -0.31873295	      0.76008564	      0.75157209	     -0.25045953	      0.73462570	      0.39537034	     -0.15298663	      0.73846481	      0.40741517	     -0.25945376	      0.84645885	      0.50746211	     -0.09527265	      0.77612200	      0.56940658	     -0.12170134	      0.76933418	      0.48446977	     -0.14461478	      0.70336060	      0.05992971	     -0.19605786	      0.71554411	      0.06459983	     -0.25484051	      0.69189265	      0.16606184	     -0.11218348	      0.69622644	      0.13710891	     -0.18949377	      0.76734005	      0.41759129	     -0.21251433	      0.71152381	      0.07385160	     -0.24239967	      0.81076691	      0.02648666	     -0.20659556	      0.85688347	      0.43143819	     -0.39197809	      0.85311892	      0.36907183	     -0.26624819	      0.97760714	      0.59349857	     -0.34455844	      0.89325146	      0.63312080	     -0.37168209	      0.88154101	      0.49494733	     -0.34302617	      0.70111846	      0.14047345	     -0.40555408	      0.71306419	      0.12657216	     -0.35266355	      0.76404343	      0.25550148	     -0.46883126	      0.73599770	      0.21783866	     -0.39909755	      0.89268317	      0.43614593	     -0.33720611	      0.71497064	      0.13596011	     -0.35893843	      0.78303812	      0.05690909	     -0.40686822	      0.80715637	      1.16610707	     -0.22399209	      0.81260698	      1.17123382	     -0.29883342	      0.70402045	      1.21409366	     -0.27984044	      0.79593069	      1.16642567	     -0.26398232	      0.83173494	      1.08714337	     -0.26441298	      0.76885200	      0.74474300	     -0.25719100	      0.75306300	      0.74193700	     -0.19393900	      0.75980800	      0.74185300	     -0.32408000	      0.76640800	      0.40217500	     -0.22564600	      0.88213700	      0.43941400	     -0.34408700	      0.71220300	      0.06535500	     -0.23819700	      0.71187800	      0.14652500	     -0.34263800	      0.82804400	      0.80935900	     -0.25534200	      0.82284400	      0.80942400	     -0.15501200	      0.83324400	      0.80929500	     -0.35567100	      0.66934200	      0.85370800	     -0.23024100	      0.66861100	      0.85087800	     -0.28498200	      0.76730000	      0.39710000	     -0.17088800	      0.88310500	      0.44340100	     -0.39843200	      0.76486600	      0.41176600	     -0.27244000	      0.89732900	      0.40681000	     -0.30464100	      0.70763100	      0.06470400	     -0.20098200	      0.70508300	      0.15029600	     -0.37881300	      0.71329700	      0.06464300	     -0.26363000	      0.71917300	      0.14612300	     -0.31342600	      0.70484000	      1.21951100	     -0.27916700	      0.80520700	      1.16107700	     -0.22507700	      0.81629200	      1.16272600	     -0.30089000	      0.79639100	      1.16077600	     -0.26651800	      0.82373600	      1.07837600	     -0.26188000	      0.86680900	      0.51582400	     -0.10860600	      0.97810300	      0.60638300	     -0.33710900	      0.78737500	      0.57416400	     -0.13310300	      0.89162600	      0.63433300	     -0.37575600	      0.78934200	      0.49091500	     -0.15681100	      0.91713300	      0.55088100	     -0.37745700	      0.71801500	      0.16973000	     -0.12029700	      0.77791900	      0.24601500	     -0.45604100	      0.71096200	      0.13743300	     -0.19707200	      0.74925300	      0.22016400	     -0.38121100	      0.80666600	      0.03642600	     -0.21554300	      0.78041200	      0.07158100	     -0.36101300	     -8.17065007	    335.29012734	    -12.77359571	      0.77529187	      0.00000000	     -0.22834685	      0.00000000	      0.00000000	      0.00000000	      0.30528053	      0.00000000	     -0.35309070	      0.00000000	      1.05668079	      0.00000000	      0.00000000	      0.00000000	      0.00000000	      0.76885152	      0.74474263	     -0.25719118	      0.75306273	      0.74193668	     -0.19393927	      0.75980794	      0.74185300	     -0.32408005	      0.76640797	      0.40217504	     -0.22564648	      0.88213724	      0.43941447	     -0.34408709	      0.71220297	      0.06535466	     -0.23819654	      0.71187818	      0.14652498	     -0.34263811	      0.82804382	      0.80935925	     -0.25534156	      0.82284367	      0.80942374	     -0.15501180	      0.83324391	      0.80929476	     -0.35567132	      0.66934168	      0.85370833	     -0.23024073	      0.66861063	      0.85087836	     -0.28498152	      0.76730007	      0.39709994	     -0.17088839	      0.88310540	      0.44340113	     -0.39843246	      0.76486635	      0.41176596	     -0.27243978	      0.89732921	      0.40680963	     -0.30464080	      0.70763075	      0.06470385	     -0.20098200	      0.70508265	      0.15029632	     -0.37881264	      0.71329659	      0.06464320	     -0.26362985	      0.71917254	      0.14612348	     -0.31342626	      0.70483977	      1.21951056	     -0.27916718	      0.80520678	      1.16107726	     -0.22507729	      0.81629235	      1.16272628	     -0.30088985	      0.79639089	      1.16077650	     -0.26651779	      0.82373625	      1.07837617	     -0.26188046	      0.86680871	      0.51582438	     -0.10860590	      0.97810304	      0.60638320	     -0.33710915	      0.78737473	      0.57416397	     -0.13310251	      0.89162552	      0.63433337	     -0.37575614	      0.78934151	      0.49091461	     -0.15681148	      0.91713303	      0.55088055	     -0.37745732	      0.71801496	      0.16972968	     -0.12029705	      0.77791929	      0.24601547	     -0.45604056	      0.71096152	      0.13743295	     -0.19707190	      0.74925321	      0.22016375	     -0.38121137	      0.80666578	      0.03642614	     -0.21554288	      0.78041172	      0.07158090	     -0.36101291
